<mxfile host="app.diagrams.net" agent="Mozilla/5.0 (Windows NT 10.0; Win64; x64) AppleWebKit/537.36 (KHTML, like Gecko) Chrome/131.0.0.0 Safari/537.36" version="24.8.9">
  <diagram name="Страница — 1" id="S7Z61823W9H1IB6m0hSB">
    <mxGraphModel dx="794" dy="721" grid="1" gridSize="10" guides="1" tooltips="1" connect="1" arrows="1" fold="1" page="1" pageScale="1" pageWidth="1654" pageHeight="1169" math="0" shadow="0">
      <root>
        <mxCell id="0" />
        <mxCell id="1" parent="0" />
        <mxCell id="P7B92xdR4_jTVlOhPiBj-6" style="edgeStyle=orthogonalEdgeStyle;rounded=0;orthogonalLoop=1;jettySize=auto;html=1;exitX=0.5;exitY=1;exitDx=0;exitDy=0;entryX=0;entryY=0.5;entryDx=0;entryDy=0;" edge="1" parent="1" source="P7B92xdR4_jTVlOhPiBj-3" target="P7B92xdR4_jTVlOhPiBj-5">
          <mxGeometry relative="1" as="geometry" />
        </mxCell>
        <mxCell id="P7B92xdR4_jTVlOhPiBj-3" value="Создание пользователем заявки в автосервис на запись в очередь на ремонт машины" style="rounded=0;whiteSpace=wrap;html=1;" vertex="1" parent="1">
          <mxGeometry x="50" y="90" width="180" height="60" as="geometry" />
        </mxCell>
        <mxCell id="P7B92xdR4_jTVlOhPiBj-9" style="edgeStyle=orthogonalEdgeStyle;rounded=0;orthogonalLoop=1;jettySize=auto;html=1;exitX=0.5;exitY=0;exitDx=0;exitDy=0;entryX=0;entryY=0.5;entryDx=0;entryDy=0;" edge="1" parent="1" source="P7B92xdR4_jTVlOhPiBj-5" target="P7B92xdR4_jTVlOhPiBj-7">
          <mxGeometry relative="1" as="geometry" />
        </mxCell>
        <mxCell id="P7B92xdR4_jTVlOhPiBj-5" value="Обработка заявки. Подтверждение заявки.&lt;div&gt;Регистрация заявки в системе.&lt;/div&gt;&lt;div&gt;Отправка подтверждения заявки.&lt;/div&gt;" style="rounded=0;whiteSpace=wrap;html=1;" vertex="1" parent="1">
          <mxGeometry x="180" y="210" width="190" height="80" as="geometry" />
        </mxCell>
        <mxCell id="P7B92xdR4_jTVlOhPiBj-11" style="edgeStyle=orthogonalEdgeStyle;rounded=0;orthogonalLoop=1;jettySize=auto;html=1;exitX=1;exitY=0.5;exitDx=0;exitDy=0;entryX=0.5;entryY=0;entryDx=0;entryDy=0;" edge="1" parent="1" source="P7B92xdR4_jTVlOhPiBj-7" target="P7B92xdR4_jTVlOhPiBj-10">
          <mxGeometry relative="1" as="geometry" />
        </mxCell>
        <mxCell id="P7B92xdR4_jTVlOhPiBj-7" value="Rabbit MQ&lt;div&gt;Отправка sms оповещения пользователю&lt;/div&gt;" style="shape=hexagon;perimeter=hexagonPerimeter2;whiteSpace=wrap;html=1;fixedSize=1;" vertex="1" parent="1">
          <mxGeometry x="340" y="80" width="120" height="80" as="geometry" />
        </mxCell>
        <mxCell id="P7B92xdR4_jTVlOhPiBj-10" value="Пользователь получил sms оповещение об одобрении заявки" style="rounded=0;whiteSpace=wrap;html=1;" vertex="1" parent="1">
          <mxGeometry x="450" y="220" width="120" height="60" as="geometry" />
        </mxCell>
        <mxCell id="P7B92xdR4_jTVlOhPiBj-16" style="edgeStyle=orthogonalEdgeStyle;rounded=0;orthogonalLoop=1;jettySize=auto;html=1;exitX=1;exitY=0.5;exitDx=0;exitDy=0;entryX=0;entryY=0.5;entryDx=0;entryDy=0;" edge="1" parent="1" source="P7B92xdR4_jTVlOhPiBj-12" target="P7B92xdR4_jTVlOhPiBj-17">
          <mxGeometry relative="1" as="geometry" />
        </mxCell>
        <mxCell id="P7B92xdR4_jTVlOhPiBj-12" value="&amp;nbsp;Работа с телефонной базой для обзвона клиентов банка с целью информирования о выгодных предложениях" style="rounded=0;whiteSpace=wrap;html=1;" vertex="1" parent="1">
          <mxGeometry x="50" y="410" width="180" height="60" as="geometry" />
        </mxCell>
        <mxCell id="P7B92xdR4_jTVlOhPiBj-13" value="Использование Rabbit MQ на примере записи на ремонт машины в автосервис" style="rounded=0;whiteSpace=wrap;html=1;strokeWidth=0;" vertex="1" parent="1">
          <mxGeometry x="150" y="10" width="490" height="40" as="geometry" />
        </mxCell>
        <mxCell id="P7B92xdR4_jTVlOhPiBj-14" value="Использование Fafka на примере работы с базой телефонных номеров" style="rounded=0;whiteSpace=wrap;html=1;strokeWidth=0;" vertex="1" parent="1">
          <mxGeometry x="150" y="330" width="490" height="40" as="geometry" />
        </mxCell>
        <mxCell id="P7B92xdR4_jTVlOhPiBj-20" style="edgeStyle=orthogonalEdgeStyle;rounded=0;orthogonalLoop=1;jettySize=auto;html=1;entryX=0.5;entryY=0;entryDx=0;entryDy=0;" edge="1" parent="1" source="P7B92xdR4_jTVlOhPiBj-15" target="P7B92xdR4_jTVlOhPiBj-17">
          <mxGeometry relative="1" as="geometry" />
        </mxCell>
        <mxCell id="P7B92xdR4_jTVlOhPiBj-21" value="Загрузка ежесуточно&lt;div&gt;в 00.01&amp;nbsp;&lt;/div&gt;" style="edgeLabel;html=1;align=center;verticalAlign=middle;resizable=0;points=[];" vertex="1" connectable="0" parent="P7B92xdR4_jTVlOhPiBj-20">
          <mxGeometry x="-0.2" y="2" relative="1" as="geometry">
            <mxPoint as="offset" />
          </mxGeometry>
        </mxCell>
        <mxCell id="P7B92xdR4_jTVlOhPiBj-15" value="Kafka&lt;div&gt;Загрузка списка номеров телефонов из базы банка&lt;/div&gt;" style="shape=hexagon;perimeter=hexagonPerimeter2;whiteSpace=wrap;html=1;fixedSize=1;" vertex="1" parent="1">
          <mxGeometry x="300" y="400" width="120" height="80" as="geometry" />
        </mxCell>
        <mxCell id="P7B92xdR4_jTVlOhPiBj-17" value="Обновление базы номеров.&amp;nbsp;&lt;div&gt;Работа с &lt;b&gt;&lt;u&gt;обновленной&lt;/u&gt;&lt;/b&gt; телефонной базой для обзвона клиентов банка с целью информирования о выгодных предложениях&lt;/div&gt;" style="rounded=0;whiteSpace=wrap;html=1;" vertex="1" parent="1">
          <mxGeometry x="270" y="540" width="180" height="90" as="geometry" />
        </mxCell>
        <mxCell id="P7B92xdR4_jTVlOhPiBj-19" style="edgeStyle=orthogonalEdgeStyle;rounded=0;orthogonalLoop=1;jettySize=auto;html=1;entryX=1;entryY=0.5;entryDx=0;entryDy=0;" edge="1" parent="1" source="P7B92xdR4_jTVlOhPiBj-18" target="P7B92xdR4_jTVlOhPiBj-15">
          <mxGeometry relative="1" as="geometry" />
        </mxCell>
        <mxCell id="P7B92xdR4_jTVlOhPiBj-18" value="Обновленная база телефонных номеров клиентов банка на серверах банка" style="rounded=0;whiteSpace=wrap;html=1;" vertex="1" parent="1">
          <mxGeometry x="490" y="410" width="180" height="60" as="geometry" />
        </mxCell>
      </root>
    </mxGraphModel>
  </diagram>
</mxfile>
